<svg width="21" height="18" viewBox="0 0 21 18" fill="none" xmlns="http://www.w3.org/2000/svg">
<path d="M16.4639 6.89696C13.6376 8.4538 14.0355 13.1484 17.0719 13.2011C18.3815 13.2239 19.5315 12.2591 20.0573 11.0092C21.2716 8.12252 18.8905 5.55984 16.4639 6.89696Z" fill="#FF7236"/>
<path d="M13.5788 7.42744C16.9375 7.4858 18.0391 1.79975 14.8639 0.806624C13.4173 0.354289 11.7469 1.35031 11.1844 3.21434C10.5533 5.3036 11.6905 7.39464 13.5788 7.42744Z" fill="#FF7236"/>
<path d="M12.5438 17.5647C12.0795 17.4277 11.2531 17.3302 10.3867 17.3032C9.471 17.2739 8.51092 17.3228 7.88755 17.4838C6.20388 17.9216 3.9426 16.7525 4.48237 14.4154C4.98163 12.2549 6.64233 12.4073 7.0701 10.359C7.50121 8.28888 9.05771 7.31323 10.553 7.41759C11.9369 7.51437 13.2682 8.53665 13.6031 10.473C13.9594 12.5363 15.6208 12.4405 16.0465 14.6164C16.5091 16.9727 14.2052 18.0563 12.5438 17.5647Z" fill="#FF7236"/>
<path d="M7.66714 7.32488C8.61719 7.34139 9.44241 6.80378 9.91001 5.96715C11.3001 3.4794 9.14489 -0.0354361 6.60515 0.665157C3.39289 1.5499 4.31026 7.26656 7.66714 7.32488Z" fill="#FF7236"/>
<path d="M6.08441 11.1424C7.20725 8.52249 4.70516 5.25488 2.2467 6.22662C-0.714651 7.39699 0.493772 12.6877 3.72731 12.7439C4.76503 12.762 5.65763 12.1384 6.08441 11.1424Z" fill="#FF7236"/>
<path d="M12.5438 17.5647C12.0796 17.4277 11.2531 17.3302 10.3868 17.3032L10.5531 7.4176C11.937 7.51438 13.2683 8.53666 13.6032 10.473C13.9595 12.5364 15.6209 12.4405 16.0466 14.6164C16.5092 16.9727 14.2052 18.0564 12.5438 17.5647Z" fill="#FF7236"/>
</svg>
